<svg id="Layer_1" data-name="Layer 1" xmlns="http://www.w3.org/2000/svg" viewBox="0 0 769.54 899.08"><title>1</title><path d="M858,768.48l-49.77-46c-20-18.42-39.8-36.94-59.9-55.19-4-3.62-5.58-7.3-5.6-12.74q-.4-104.07-1.29-208.14c0-1.3.82-2.94-.86-4-2.44.71-2.22,3.12-2.9,4.76Q677.79,591,618.06,734.88c-3.28,7.89-3.27,7.93,5.19,7.93,37,0,74.06-.14,111.08.14,6.23,0,8-1.8,7.81-7.92-.4-15.44-.13-30.9-.13-48.47,6.26,5.75,11,10.13,15.81,14.54Q813.74,753,869.63,804.83c2.32,2.15,6,3.83.94,7.65q-65.34,49.26-130.41,98.86a10.49,10.49,0,0,1-1.87.78c-1.75-3.17-.77-6.62-.81-9.84-.14-12.84-.28-25.69,0-38.52.14-5.21-1.54-6.74-6.71-6.69q-79.2.79-158.42,1.1c-4.89,0-6.16,2.68-7.69,6.23Q536.92,928.59,509,992.7c-17.7,40.72-35.48,81.42-53,122.22-2,4.74-4.29,6.48-9.78,6.29q-66.93-2.31-133.88-3.75c-6.47-.14-6.88-1.75-4.25-7.17q105.8-218,211.37-436.21,63.85-131.9,127.67-263.81c.43-.88.76-1.83,1.27-2.67,3.62-5.87.82-6.3-4.38-5.61-65.66,8.67-125.67,31.53-175.2,76.09-85.05,76.51-122.48,173-113.08,286.94,3.47,42.1,17.43,81.4,39.95,117.38,1.31,2.09,2.7,3.69,1.11,6.6-11.11,20.32-22,40.76-33.36,61.92a267.21,267.21,0,0,1-28-44.33c-25-48.78-36.41-101.21-44.08-155.1-15.42-108.36,43.79-239.95,103.12-300.68C431.23,413.17,475,386.74,523,366.66c47.63-20,97.17-31.23,149.09-29.22,7.93.3,11.45-1.64,14.8-8.8,15.9-34,32.57-67.54,48.77-101.36,1.75-3.67,3.77-5.09,7.8-5.07,36,.12,72.08.22,108.11-.07,6.27,0,6.54,2.87,6.53,7.63-.1,48.41,0,96.81-.18,145.21,0,5.37,1.76,8.38,6.24,11.25,57.33,36.67,106.24,81.83,141.23,140.95,26.28,44.39,41.65,92.5,48.84,143.38,17.39,123.07-19.4,229.36-101.74,320.33-47.5,52.49-108.08,84.92-175,106.59-96.3,31.18-188.27,19.09-277.46-25.61-6.51-3.26-7.77-6-4.21-12.77,7.81-14.83,14.82-30.1,21.63-45.43,2.42-5.46,4.59-6,9.79-3.3a319.07,319.07,0,0,0,112,33.61c59.89,6.43,116.76-4.54,171.49-29C893,978.2,943.81,913.81,973,830.42c19-54.29,25.78-109.9,15.32-166.87C977.58,605.21,950.39,555,911.63,510.6a400.05,400.05,0,0,0-46.84-45.2c-1.74-1.44-3.36-4.56-5.92-3.16-1.94,1.07-.84,4.11-.84,6.26Q858,613,858,757.44Z" transform="translate(-288.86 -222.14)"/><path d="M858.23,843.71c-1.11,25.81-2.14,49.45-3.17,73.09-.38,8.88-.88,17.75-1.11,26.63-.09,3.26-.9,5-4.6,5q-57.37-.23-114.75-.29c-.18,0-.35-.29-1.4-1.25Z" transform="translate(-288.86 -222.14)"/></svg>